<svg xmlns="http://www.w3.org/2000/svg" viewBox="0 0 1280 400" width="1280" height="400" role="img" aria-label="Squatch Stack banner">
<title>Squatch Stack — the studio and the project resonate in one field.</title>
<defs><clipPath id="ban"><rect x="0" y="0" width="1280" height="400" rx="20"/></clipPath></defs>
<rect x="0" y="0" width="1280" height="400" rx="20" fill="#1c3a30"/>
<g clip-path="url(#ban)">
<circle cx="330" cy="200" r="34" fill="none" stroke="#C9A84C" stroke-width="1.4" opacity="0.22"/>
<circle cx="330" cy="200" r="68" fill="none" stroke="#C9A84C" stroke-width="1.4" opacity="0.22"/>
<circle cx="330" cy="200" r="102" fill="none" stroke="#C9A84C" stroke-width="1.4" opacity="0.22"/>
<circle cx="330" cy="200" r="136" fill="none" stroke="#C9A84C" stroke-width="1.4" opacity="0.22"/>
<circle cx="330" cy="200" r="170" fill="none" stroke="#C9A84C" stroke-width="1.4" opacity="0.22"/>
<circle cx="330" cy="200" r="204" fill="none" stroke="#C9A84C" stroke-width="1.4" opacity="0.22"/>
<circle cx="330" cy="200" r="238" fill="none" stroke="#C9A84C" stroke-width="1.4" opacity="0.22"/>
<circle cx="330" cy="200" r="272" fill="none" stroke="#C9A84C" stroke-width="1.4" opacity="0.22"/>
<circle cx="330" cy="200" r="306" fill="none" stroke="#C9A84C" stroke-width="1.4" opacity="0.22"/>
<circle cx="330" cy="200" r="340" fill="none" stroke="#C9A84C" stroke-width="1.4" opacity="0.22"/>
<circle cx="330" cy="200" r="374" fill="none" stroke="#C9A84C" stroke-width="1.4" opacity="0.22"/>
<circle cx="330" cy="200" r="408" fill="none" stroke="#C9A84C" stroke-width="1.4" opacity="0.22"/>
<circle cx="330" cy="200" r="442" fill="none" stroke="#C9A84C" stroke-width="1.4" opacity="0.22"/>
<circle cx="330" cy="200" r="476" fill="none" stroke="#C9A84C" stroke-width="1.4" opacity="0.22"/>
<circle cx="330" cy="200" r="510" fill="none" stroke="#C9A84C" stroke-width="1.4" opacity="0.22"/>
<circle cx="330" cy="200" r="544" fill="none" stroke="#C9A84C" stroke-width="1.4" opacity="0.22"/>
<circle cx="330" cy="200" r="578" fill="none" stroke="#C9A84C" stroke-width="1.4" opacity="0.22"/>
<circle cx="330" cy="200" r="612" fill="none" stroke="#C9A84C" stroke-width="1.4" opacity="0.22"/>
<circle cx="330" cy="200" r="646" fill="none" stroke="#C9A84C" stroke-width="1.4" opacity="0.22"/>
<circle cx="330" cy="200" r="680" fill="none" stroke="#C9A84C" stroke-width="1.4" opacity="0.22"/>
<circle cx="330" cy="200" r="714" fill="none" stroke="#C9A84C" stroke-width="1.4" opacity="0.22"/>
<circle cx="330" cy="200" r="748" fill="none" stroke="#C9A84C" stroke-width="1.4" opacity="0.22"/>
<circle cx="330" cy="200" r="782" fill="none" stroke="#C9A84C" stroke-width="1.4" opacity="0.22"/>
<circle cx="330" cy="200" r="816" fill="none" stroke="#C9A84C" stroke-width="1.4" opacity="0.22"/>
<circle cx="330" cy="200" r="850" fill="none" stroke="#C9A84C" stroke-width="1.4" opacity="0.22"/>
<circle cx="330" cy="200" r="884" fill="none" stroke="#C9A84C" stroke-width="1.4" opacity="0.22"/>
<circle cx="330" cy="200" r="918" fill="none" stroke="#C9A84C" stroke-width="1.4" opacity="0.22"/>
<circle cx="330" cy="200" r="952" fill="none" stroke="#C9A84C" stroke-width="1.4" opacity="0.22"/>
<circle cx="330" cy="200" r="986" fill="none" stroke="#C9A84C" stroke-width="1.4" opacity="0.22"/>
<circle cx="330" cy="200" r="1020" fill="none" stroke="#C9A84C" stroke-width="1.4" opacity="0.22"/>
<circle cx="330" cy="200" r="1054" fill="none" stroke="#C9A84C" stroke-width="1.4" opacity="0.22"/>
<circle cx="330" cy="200" r="1088" fill="none" stroke="#C9A84C" stroke-width="1.4" opacity="0.22"/>
<circle cx="950" cy="205" r="34" fill="none" stroke="#B8860B" stroke-width="1.4" opacity="0.22"/>
<circle cx="950" cy="205" r="68" fill="none" stroke="#B8860B" stroke-width="1.4" opacity="0.22"/>
<circle cx="950" cy="205" r="102" fill="none" stroke="#B8860B" stroke-width="1.4" opacity="0.22"/>
<circle cx="950" cy="205" r="136" fill="none" stroke="#B8860B" stroke-width="1.4" opacity="0.22"/>
<circle cx="950" cy="205" r="170" fill="none" stroke="#B8860B" stroke-width="1.4" opacity="0.22"/>
<circle cx="950" cy="205" r="204" fill="none" stroke="#B8860B" stroke-width="1.4" opacity="0.22"/>
<circle cx="950" cy="205" r="238" fill="none" stroke="#B8860B" stroke-width="1.4" opacity="0.22"/>
<circle cx="950" cy="205" r="272" fill="none" stroke="#B8860B" stroke-width="1.4" opacity="0.22"/>
<circle cx="950" cy="205" r="306" fill="none" stroke="#B8860B" stroke-width="1.4" opacity="0.22"/>
<circle cx="950" cy="205" r="340" fill="none" stroke="#B8860B" stroke-width="1.4" opacity="0.22"/>
<circle cx="950" cy="205" r="374" fill="none" stroke="#B8860B" stroke-width="1.4" opacity="0.22"/>
<circle cx="950" cy="205" r="408" fill="none" stroke="#B8860B" stroke-width="1.4" opacity="0.22"/>
<circle cx="950" cy="205" r="442" fill="none" stroke="#B8860B" stroke-width="1.4" opacity="0.22"/>
<circle cx="950" cy="205" r="476" fill="none" stroke="#B8860B" stroke-width="1.4" opacity="0.22"/>
<circle cx="950" cy="205" r="510" fill="none" stroke="#B8860B" stroke-width="1.4" opacity="0.22"/>
<circle cx="950" cy="205" r="544" fill="none" stroke="#B8860B" stroke-width="1.4" opacity="0.22"/>
<circle cx="950" cy="205" r="578" fill="none" stroke="#B8860B" stroke-width="1.4" opacity="0.22"/>
<circle cx="950" cy="205" r="612" fill="none" stroke="#B8860B" stroke-width="1.4" opacity="0.22"/>
<circle cx="950" cy="205" r="646" fill="none" stroke="#B8860B" stroke-width="1.4" opacity="0.22"/>
<circle cx="950" cy="205" r="680" fill="none" stroke="#B8860B" stroke-width="1.4" opacity="0.22"/>
<circle cx="950" cy="205" r="714" fill="none" stroke="#B8860B" stroke-width="1.4" opacity="0.22"/>
<circle cx="950" cy="205" r="748" fill="none" stroke="#B8860B" stroke-width="1.4" opacity="0.22"/>
<circle cx="950" cy="205" r="782" fill="none" stroke="#B8860B" stroke-width="1.4" opacity="0.22"/>
<circle cx="950" cy="205" r="816" fill="none" stroke="#B8860B" stroke-width="1.4" opacity="0.22"/>
<circle cx="950" cy="205" r="850" fill="none" stroke="#B8860B" stroke-width="1.4" opacity="0.22"/>
<circle cx="950" cy="205" r="884" fill="none" stroke="#B8860B" stroke-width="1.4" opacity="0.22"/>
<circle cx="950" cy="205" r="918" fill="none" stroke="#B8860B" stroke-width="1.4" opacity="0.22"/>
<circle cx="950" cy="205" r="952" fill="none" stroke="#B8860B" stroke-width="1.4" opacity="0.22"/>
<circle cx="950" cy="205" r="986" fill="none" stroke="#B8860B" stroke-width="1.4" opacity="0.22"/>
<circle cx="950" cy="205" r="1020" fill="none" stroke="#B8860B" stroke-width="1.4" opacity="0.22"/>
<circle cx="950" cy="205" r="1054" fill="none" stroke="#B8860B" stroke-width="1.4" opacity="0.22"/>
<circle cx="950" cy="205" r="1088" fill="none" stroke="#B8860B" stroke-width="1.4" opacity="0.22"/>
<path d="M 150,330 L 1130,330" stroke="#C2562E" stroke-width="6" stroke-linecap="round" opacity="0.85" fill="none"/>
<g transform="translate(236.0,70.2) scale(0.93)"><path fill="#FAF6EF" d="m 147.5,266.7 c -2.6,-0.4 -5.1,-1.6 -6.6,-3.1 -1.5,-1.5 -2,-2.5 -3.3,-6.6 -1,-2.9 -1.1,-6.2 -1.2,-8.7 0,-6.2 -2.1,-9.3 -5.7,-13.4 -3.9,-4.9 -6.8,-10.2 -7.3,-16.2 -0.3,-8.1 -0.1,-17.1 -1.9,-25 -0.5,-1.8 -1.1,-2.6 -3.8,-4.7 -4.6,-3.6 -9.7,-6.3 -14.4,-8.8 0.1,3.3 0.2,6.7 -0.2,10 -1.2,8 -4.3,13.9 -10,18.2 -13,11.7 -28.5,20.6 -41.4,31 -0.8,0.7 -2,1.9 -2.4,2.5 1.6,2.4 10.3,7 13.4,8.6 5.1,2.5 5.6,2.9 7.3,6.2 1.1,2.4 1.7,4.1 -0.9,5.5 -1.2,0.5 -3.3,0.6 -4.5,-0.2 -1.7,-1 -3.5,-0.5 -4.6,-0.2 -3,0.9 -5.2,0.7 -7,0.7 -5.8,0.1 -8.7,-1 -13.3,-3.6 -6.7,-4.3 -14.5,-3.4 -22.2,-6.4 -2.1,-0.9 -3.8,-2.8 -4.2,-4.6 -0.6,-4.4 0.1,-9.3 3.1,-13.1 7.2,-6.6 17.7,-12 24.2,-19.9 5.4,-10.9 10.2,-19.3 19.6,-22.4 5.2,-2.2 5.5,-2.1 10.7,-3.9 2.4,-0.8 2.1,-0.6 1.3,-2.6 -3.7,-10.3 -6.1,-20.3 -7.7,-29.8 -0.2,-1.5 -0.4,-1.9 -0.6,-1.9 -0.2,0 -1.4,-0.8 -2,-1.2 -10,-9.1 -3.7,-19.9 -3,-28.3 -0.7,-7.5 -1.7,-14.4 -0.5,-21.7 -0.1,-1.7 1.5,-4.7 1.1,-6.2 -2,1.5 -3.7,2.8 -5.1,3.9 l 0.1,3.6 c 0.1,3.9 0.1,3.8 -0.6,7.2 -0.6,2.9 -0.7,5.3 -2.3,6.9 -4.3,4.7 -9.2,10.4 -10.7,15.5 -0.4,1.6 -0.9,4.6 -0.9,5.4 1.6,3.1 3.9,6 5,8.9 1.7,4.5 1.8,8.7 -1.4,12.3 -1.7,-2.4 -2.3,-7.9 -4.9,-9.3 -1.6,2.1 -2.4,4.3 -3.9,6.4 -0.4,0.5 0.4,1 0.7,1.4 1.2,1.3 2.5,2.6 3.5,3.3 2.3,1.6 5.8,2.2 7.2,5 0.3,0.6 0.6,2 0.4,2.2 -2.4,-0.3 -5,-0.6 -7.2,-0.3 -4.9,0.4 -10.8,-1 -14.4,-4.3 -1.1,-1.1 -1.9,-1.6 -2.8,-1.9 -0.3,-0.1 -0.9,-0.3 -1.2,-0.4 -1.7,-1.3 -3.2,-5.1 -4.1,-7.2 -0.9,-2 -1.3,-3.7 -1.3,-5.1 0.5,-6 2.2,-12.3 3,-17.5 1.6,-8.8 2.3,-18.3 4.3,-26.1 0.6,-4.5 5.4,-10.3 5.5,-14.3 0,-0.6 -0.1,-0.8 -0.5,-1.6 -0.7,-1.2 -0.6,-1.7 0.3,-3.2 3.9,-11.8 9.6,-20 14.9,-30.2 0.5,-1.1 0.6,-1.5 0.3,-1.8 -0.2,-0.2 -0.5,-0.3 -0.7,-0.5 -0.2,-0.4 0.6,-1.7 2.2,-3.4 2.4,-3.3 6.7,-4.4 9.4,-7.3 1.4,-2.1 1.7,-2.7 3.9,-3.6 4.5,-2.4 9.6,-2.2 13.9,-2.2 4.3,-0.1 8.2,0.5 11,-2.1 1.5,-1.4 1.6,-1.5 3,-2.2 8,-2.6 13.4,-6.2 18.3,-11.3 5.5,-5.8 13.7,-11.9 21.4,-9.7 10.7,2.9 12.2,14.9 16.7,22 0.4,0.6 0.9,1.4 1,1.7 0.4,1.1 0.2,2.7 -0.4,3.4 -1,0.9 -2,1.2 -3.1,2 1.7,2.2 3.5,4.3 5,6.2 -0.6,1.4 -2.2,2 -2.9,3.3 -0.2,0.5 0,0.8 0.1,1.2 0.6,1.6 0.2,3.1 -0.1,4.6 -0.8,2 -1.5,7.3 -3.1,8.8 -2.3,-0.7 -4.8,-1.7 -6.8,-2.4 1.9,2.7 4.2,5.7 5.3,8.9 0.6,3.6 1.9,9.2 1.2,12.3 -0.1,0.4 -0.3,0.9 -0.5,1.2 -0.7,1 -0.9,1.7 -1.1,3.1 0.5,2.5 -5.4,17 -4.5,17.6 3.2,1.9 6,4.4 8.6,6.6 9,9.5 19.9,19.4 28.3,29.4 0.6,0.9 1.1,1.6 1.2,1.6 2.5,3.6 4.7,6.1 5.7,10.3 1.2,6 -0.6,9.1 -4.3,13.2 -0.8,0.8 -1.2,1 -2.4,1.2 -1.8,0.4 -5.4,2.9 -7,1.5 -0.6,-0.6 -0.4,-1.8 -0.1,-2.6 1.3,-2.3 2.3,-3.9 3.6,-6.1 -1.3,-2 -1.6,-4.7 -3.2,-6.2 -2.5,-1.8 -4.9,-2.5 -7.7,-3.2 -1.3,3 -0.6,6.4 -0.9,9.7 -0.1,0.4 -1.6,-0.8 -2.7,-2.2 -3.8,-4.6 -4,-8.3 -5.6,-13.5 -0.3,-0.8 -0.4,-1.7 -0.8,-2.4 -5.4,-3.8 -10.1,-8.3 -16.4,-10.9 -2.8,-0.9 -6.1,-1.4 -7.9,-2.5 -1.9,-1.1 -3,-2.7 -4.6,-4.1 -0.6,4.6 -2.7,8.1 -5.4,11.4 3.6,3 7.1,6.3 10.1,9.8 2.8,3.3 5.6,7 8.1,10.2 3.9,5.3 8.5,10.9 12.5,15.4 3.1,3.6 4,4.6 5.9,7.3 3.5,4.8 4.2,11.1 4.2,16.1 0,1.5 0.1,2.6 0.4,3.7 1.5,8.5 2.8,18 3.9,26.3 0.4,2.9 0.8,5.8 1.2,8.6 0.2,1.1 0.5,4.7 0.5,5.3 0.3,0.3 0.8,0.8 1.1,0.8 5.7,-0.3 12.3,-1.7 17.2,-1.6 3.2,0.1 4.4,-0.1 6.1,-0.7 2.9,-1.1 4.3,-1.5 5.9,-1.6 1.3,-0.2 1.9,0.6 2.1,1.5 0.1,0.6 0.1,1 -0.1,3.1 -0.1,2.4 -1.2,4.2 -2.5,5.8 -0.8,0.9 -2.2,2.7 -3.2,3.9 -5,5.1 -14.4,8.5 -21.3,9.3 -3.7,0.9 -7.7,4.3 -11.9,4.8 -1.2,0.1 -3,0.2 -3.7,0.1 z"/></g>
<path d="M 950.0,330.0 L 950.0,161.0" fill="none" stroke="#FAF6EF" stroke-width="29.9" stroke-linecap="round" stroke-linejoin="round"/>
<path d="M 943.5,265.0 L 913.6,265.0 L 913.6,213.0" fill="none" stroke="#FAF6EF" stroke-width="19.5" stroke-linecap="round" stroke-linejoin="round"/>
<path d="M 956.5,231.2 L 987.7,231.2 L 987.7,184.4" fill="none" stroke="#FAF6EF" stroke-width="19.5" stroke-linecap="round" stroke-linejoin="round"/>
</g>
</svg>
